<svg width="153" height="53" viewBox="0 0 153 53" fill="none" xmlns="http://www.w3.org/2000/svg">
<path d="M76.2715 9.50658H81.0473V33.2883H76.4397V17.8642L69.8141 28.9057H69.276L62.6504 17.8981V33.2883H58.0091V9.50658H62.7849L69.545 20.7519L76.2715 9.50658Z" fill="black"/>
<path d="M106.084 30.1967C103.708 32.5749 100.815 33.764 97.4071 33.764C93.999 33.764 91.1066 32.5749 88.7299 30.1967C86.3757 27.7732 85.1985 24.8401 85.1985 21.3975C85.1985 17.9321 86.3757 15.0104 88.7299 12.6322C91.1066 10.2314 93.999 9.03094 97.4071 9.03094C100.815 9.03094 103.708 10.2314 106.084 12.6322C108.461 15.0104 109.649 17.9321 109.649 21.3975C109.649 24.8628 108.461 27.7959 106.084 30.1967ZM91.9923 27.0031C93.4273 28.4527 95.2322 29.1775 97.4071 29.1775C99.582 29.1775 101.387 28.4527 102.822 27.0031C104.279 25.5309 105.008 23.6624 105.008 21.3975C105.008 19.1325 104.279 17.264 102.822 15.7918C101.365 14.3195 99.5596 13.5834 97.4071 13.5834C95.2546 13.5834 93.4497 14.3195 91.9923 15.7918C90.5349 17.264 89.8062 19.1325 89.8062 21.3975C89.8062 23.6624 90.5349 25.5309 91.9923 27.0031Z" fill="black"/>
<path d="M120.936 33.764C118.627 33.764 116.676 33.243 115.084 32.2012C113.492 31.1593 112.36 29.7211 111.687 27.8865L115.656 25.5423C116.575 27.9657 118.38 29.1775 121.071 29.1775C122.326 29.1775 123.268 28.951 123.896 28.498C124.524 28.045 124.838 27.4335 124.838 26.6634C124.838 25.8254 124.468 25.1799 123.728 24.7269C122.988 24.2513 121.665 23.7417 119.759 23.1981C117.696 22.5639 116.071 21.8278 114.883 20.9898C113.403 19.8799 112.663 18.2492 112.663 16.0975C112.663 13.9232 113.414 12.2132 114.916 10.9675C116.418 9.67645 118.246 9.03094 120.398 9.03094C122.282 9.03094 123.952 9.49525 125.409 10.4239C126.867 11.3525 127.999 12.6662 128.806 14.3648L124.905 16.6411C123.963 14.6027 122.461 13.5834 120.398 13.5834C119.457 13.5834 118.705 13.8099 118.145 14.2629C117.584 14.6933 117.304 15.2595 117.304 15.9616C117.304 16.709 117.607 17.3206 118.212 17.7962C118.885 18.2719 120.073 18.7701 121.777 19.2911L123.392 19.8347C123.683 19.9252 124.187 20.1178 124.905 20.4122C125.578 20.6613 126.071 20.8992 126.385 21.1257C127.483 21.8051 128.223 22.5073 128.605 23.232C129.188 24.1833 129.479 25.3045 129.479 26.5955C129.479 28.7924 128.683 30.5364 127.091 31.8274C125.499 33.1185 123.448 33.764 120.936 33.764Z" fill="black"/>
<path d="M146.568 18.9513V9.50658H151.176V33.2883H146.568V23.4359H137.824V33.2883H133.183V9.50658H137.824V18.9513H146.568Z" fill="black"/>
<path d="M4.92378 53C3.4888 53 2.30942 52.5244 1.38565 51.5731C0.461885 50.6309 0 49.4622 0 48.067C0 46.6718 0.461885 45.5031 1.38565 44.5609C2.30942 43.6096 3.4888 43.134 4.92378 43.134C5.7758 43.134 6.56504 43.3423 7.2915 43.7591C8.01796 44.1758 8.58298 44.7375 8.98657 45.4442L7.89688 46.0829C7.62782 45.5574 7.22424 45.1407 6.68612 44.8327C6.15697 44.5156 5.56952 44.357 4.92378 44.357C3.82961 44.357 2.94171 44.7104 2.2601 45.417C1.57848 46.1146 1.23767 46.9979 1.23767 48.067C1.23767 49.127 1.57848 50.0058 2.2601 50.7034C2.94171 51.41 3.82961 51.7633 4.92378 51.7633C5.56952 51.7633 6.15697 51.6093 6.68612 51.3013C7.22424 50.9842 7.62782 50.5675 7.89688 50.0511L8.98657 50.6762C8.59195 51.3828 8.03141 51.9491 7.30495 52.3749C6.58746 52.7916 5.79374 53 4.92378 53Z" fill="black"/>
<path d="M10.7203 48.067C10.7203 46.6899 11.1912 45.5257 12.1329 44.5745C13.0746 43.6141 14.2271 43.134 15.5903 43.134C16.9535 43.134 18.106 43.6141 19.0477 44.5745C19.9984 45.5257 20.4737 46.6899 20.4737 48.067C20.4737 49.435 19.9984 50.5992 19.0477 51.5595C18.106 52.5198 16.9535 53 15.5903 53C14.2271 53 13.0746 52.5198 12.1329 51.5595C11.1912 50.5901 10.7203 49.4259 10.7203 48.067ZM19.2226 48.067C19.2226 47.0161 18.8728 46.1373 18.1733 45.4306C17.4916 44.7149 16.6307 44.357 15.5903 44.357C14.5589 44.357 13.6934 44.7149 12.9939 45.4306C12.3033 46.1463 11.958 47.0251 11.958 48.067C11.958 49.0998 12.3033 49.9786 12.9939 50.7034C13.6934 51.41 14.5589 51.7633 15.5903 51.7633C16.6307 51.7633 17.4916 51.41 18.1733 50.7034C18.8728 49.9786 19.2226 49.0998 19.2226 48.067Z" fill="black"/>
<path d="M22.8186 43.3106H26.4913C27.7648 43.3106 28.8276 43.7727 29.6796 44.6968C30.5316 45.6118 30.9577 46.7352 30.9577 48.067C30.9577 49.3897 30.5316 50.5176 29.6796 51.4508C28.8276 52.3658 27.7648 52.8233 26.4913 52.8233H22.8186V43.3106ZM24.0697 51.6275H26.4913C27.4509 51.6275 28.2357 51.2877 28.8455 50.6082C29.4554 49.9197 29.7603 49.0726 29.7603 48.067C29.7603 47.0614 29.4554 46.2143 28.8455 45.5257C28.2357 44.8463 27.4509 44.5065 26.4913 44.5065H24.0697V51.6275Z" fill="black"/>
<path d="M33.3156 52.8233V43.3106H34.5667V52.8233H33.3156Z" fill="black"/>
<path d="M43.2797 50.4044V43.3106H44.5308V52.8233H43.5219L38.6788 45.716V52.8233H37.4277V43.3106H38.4367L43.2797 50.4044Z" fill="black"/>
<path d="M51.7582 48.1078H56.4668V48.6785C56.4668 49.9197 56.0452 50.9525 55.2022 51.7769C54.3591 52.5923 53.2425 53 51.8524 53C50.4174 53 49.2291 52.5244 48.2874 51.5731C47.3546 50.6037 46.8883 49.435 46.8883 48.067C46.8883 46.699 47.3546 45.5348 48.2874 44.5745C49.2291 43.6141 50.4085 43.134 51.8255 43.134C52.6865 43.134 53.4847 43.3469 54.2201 43.7727C54.9645 44.1985 55.5251 44.7511 55.9017 45.4306L54.8255 46.0693C54.5564 45.5529 54.1484 45.1407 53.6013 44.8327C53.0542 44.5156 52.4578 44.357 51.812 44.357C50.7268 44.357 49.8434 44.7149 49.1618 45.4306C48.4712 46.1463 48.1259 47.0251 48.1259 48.067C48.1259 49.1089 48.4712 49.9876 49.1618 50.7034C49.8614 51.41 50.7627 51.7633 51.8659 51.7633C52.7896 51.7633 53.543 51.5369 54.126 51.0839C54.7179 50.6218 55.0811 50.0103 55.2156 49.2493H51.7582V48.1078Z" fill="black"/>
<path d="M70.4321 43.3106H71.8446V52.8233H70.607V45.3898L67.5262 50.5675H67.3648L64.2841 45.4034V52.8233H63.033V43.3106H64.4455L67.4455 48.3388L70.4321 43.3106Z" fill="black"/>
<path d="M82.2328 52.8233H80.901L80.1342 50.6898H75.8965L75.1297 52.8233H73.7978L77.3091 43.3106H78.7216L82.2328 52.8233ZM78.0086 44.8191L76.327 49.5075H79.7037L78.0086 44.8191Z" fill="black"/>
<path d="M84.1846 43.3106H87.8572C89.1308 43.3106 90.1936 43.7727 91.0456 44.6968C91.8976 45.6118 92.3236 46.7352 92.3236 48.067C92.3236 49.3897 91.8976 50.5176 91.0456 51.4508C90.1936 52.3658 89.1308 52.8233 87.8572 52.8233H84.1846V43.3106ZM85.4357 51.6275H87.8572C88.8169 51.6275 89.6016 51.2877 90.2115 50.6082C90.8214 49.9197 91.1263 49.0726 91.1263 48.067C91.1263 47.0614 90.8214 46.2143 90.2115 45.5257C89.6016 44.8463 88.8169 44.5065 87.8572 44.5065H85.4357V51.6275Z" fill="black"/>
<path d="M95.9327 48.6106V51.6275H100.305V52.8233H94.6816V43.3106H100.238V44.5065H95.9327V47.4283H99.9013V48.6106H95.9327Z" fill="black"/>
<path d="M109.901 53C109.022 53 108.268 52.7962 107.64 52.3885C107.022 51.9717 106.587 51.3964 106.335 50.6626L107.412 50.0375C107.77 51.1881 108.609 51.7633 109.927 51.7633C110.564 51.7633 111.053 51.632 111.394 51.3693C111.744 51.1065 111.918 50.7487 111.918 50.2957C111.918 49.8517 111.748 49.512 111.407 49.2765C111.102 49.0681 110.533 48.828 109.699 48.5562L108.797 48.2572C108.6 48.1757 108.34 48.0579 108.017 47.9039C107.703 47.7408 107.475 47.5778 107.331 47.4147C106.936 46.9798 106.739 46.4498 106.739 45.8247C106.739 44.9912 107.026 44.3389 107.6 43.8678C108.174 43.3786 108.874 43.134 109.699 43.134C110.434 43.134 111.08 43.3197 111.636 43.6911C112.192 44.0626 112.609 44.5699 112.887 45.2132L111.838 45.8247C111.434 44.8463 110.721 44.357 109.699 44.357C109.188 44.357 108.775 44.4839 108.461 44.7375C108.147 44.9912 107.99 45.3355 107.99 45.7703C107.99 46.1871 108.138 46.5042 108.434 46.7216C108.739 46.9481 109.25 47.1746 109.968 47.4011L110.519 47.5778C110.824 47.6955 110.99 47.759 111.017 47.768C111.304 47.8767 111.618 48.0262 111.959 48.2165C112.201 48.3524 112.443 48.5607 112.685 48.8416C112.999 49.1587 113.156 49.6343 113.156 50.2685C113.156 51.102 112.856 51.7679 112.255 52.2662C111.645 52.7554 110.86 53 109.901 53Z" fill="black"/>
<path d="M115.413 52.8233V43.3106H116.664V52.8233H115.413Z" fill="black"/>
<path d="M126.924 43.3106H128.337V52.8233H127.099V45.3898L124.018 50.5675H123.857L120.776 45.4034V52.8233H119.525V43.3106H120.937L123.937 48.3388L126.924 43.3106Z" fill="black"/>
<path d="M131.191 43.3106H134.608C135.469 43.3106 136.191 43.6051 136.774 44.194C137.357 44.7828 137.648 45.5076 137.648 46.3683C137.648 47.229 137.357 47.9537 136.774 48.5426C136.191 49.1315 135.469 49.4259 134.608 49.4259H132.442V52.8233H131.191V43.3106ZM132.442 48.2436H134.608C135.137 48.2436 135.568 48.067 135.9 47.7137C136.24 47.3422 136.411 46.8938 136.411 46.3683C136.411 45.8247 136.24 45.3763 135.9 45.0229C135.559 44.6696 135.128 44.4929 134.608 44.4929H132.442V48.2436Z" fill="black"/>
<path d="M141.218 43.3106V51.6275H145.281V52.8233H139.967V43.3106H141.218Z" fill="black"/>
<path d="M148.628 48.6106V51.6275H153V52.8233H147.377V43.3106H152.933V44.5065H148.628V47.4283H152.596V48.6106H148.628Z" fill="black"/>
<path d="M0.78607 30.1942L8.85378 3.02871C9.75929 -0.0203276 13.541 -1.01627 15.8049 1.19807L32.7471 17.769C34.9148 19.8892 34.2311 23.5575 31.4485 24.7362L6.43863 35.3308C3.16286 36.7184 -0.234635 33.6311 0.78607 30.1942Z" fill="#E140AA"/>
<path d="M50.7197 30.6359L42.5397 3.38539C41.6297 0.353855 37.8729 -0.640368 35.6084 1.55103L18.4304 18.1738C16.2395 20.2939 16.9252 23.9886 19.7275 25.1631L45.0855 35.7908C48.3649 37.1652 51.75 34.0681 50.7197 30.6359Z" fill="#3056DD" fill-opacity="0.8"/>
</svg>
