<svg width="188" height="40" viewBox="0 0 188 40" fill="none" xmlns="http://www.w3.org/2000/svg">
<path d="M23.856 24.592H16.872L15.672 28H12.816L18.792 11.296H21.96L27.936 28H25.056L23.856 24.592ZM23.088 22.36L20.376 14.608L17.64 22.36H23.088Z" fill="black"/>
<circle cx="20" cy="20" r="18.5" stroke="black" stroke-width="3"/>
<path d="M64.88 24.16H59.06L58.06 27H55.68L60.66 13.08H63.3L68.28 27H65.88L64.88 24.16ZM64.24 22.3L61.98 15.84L59.7 22.3H64.24ZM74.8053 21.5L79.8853 27H76.8053L72.7253 22.26V27H70.4453V12.2H72.7253V20.8L76.7253 15.98H79.8853L74.8053 21.5ZM94.8595 15.8C95.7262 15.8 96.4995 15.98 97.1795 16.34C97.8729 16.7 98.4129 17.2333 98.7995 17.94C99.1995 18.6467 99.3995 19.5 99.3995 20.5V27H97.1395V20.84C97.1395 19.8533 96.8929 19.1 96.3995 18.58C95.9062 18.0467 95.2329 17.78 94.3795 17.78C93.5262 17.78 92.8462 18.0467 92.3395 18.58C91.8462 19.1 91.5995 19.8533 91.5995 20.84V27H89.3395V20.84C89.3395 19.8533 89.0929 19.1 88.5995 18.58C88.1062 18.0467 87.4329 17.78 86.5795 17.78C85.7262 17.78 85.0462 18.0467 84.5395 18.58C84.0462 19.1 83.7995 19.8533 83.7995 20.84V27H81.5195V15.98H83.7995V17.24C84.1729 16.7867 84.6462 16.4333 85.2195 16.18C85.7929 15.9267 86.4062 15.8 87.0595 15.8C87.9395 15.8 88.7262 15.9867 89.4195 16.36C90.1129 16.7333 90.6462 17.2733 91.0195 17.98C91.3529 17.3133 91.8729 16.7867 92.5795 16.4C93.2862 16 94.0462 15.8 94.8595 15.8ZM101.541 21.44C101.541 20.3333 101.767 19.3533 102.221 18.5C102.687 17.6467 103.314 16.9867 104.101 16.52C104.901 16.04 105.781 15.8 106.741 15.8C107.607 15.8 108.361 15.9733 109.001 16.32C109.654 16.6533 110.174 17.0733 110.561 17.58V15.98H112.861V27H110.561V25.36C110.174 25.88 109.647 26.3133 108.981 26.66C108.314 27.0067 107.554 27.18 106.701 27.18C105.754 27.18 104.887 26.94 104.101 26.46C103.314 25.9667 102.687 25.2867 102.221 24.42C101.767 23.54 101.541 22.5467 101.541 21.44ZM110.561 21.48C110.561 20.72 110.401 20.06 110.081 19.5C109.774 18.94 109.367 18.5133 108.861 18.22C108.354 17.9267 107.807 17.78 107.221 17.78C106.634 17.78 106.087 17.9267 105.581 18.22C105.074 18.5 104.661 18.92 104.341 19.48C104.034 20.0267 103.881 20.68 103.881 21.44C103.881 22.2 104.034 22.8667 104.341 23.44C104.661 24.0133 105.074 24.4533 105.581 24.76C106.101 25.0533 106.647 25.2 107.221 25.2C107.807 25.2 108.354 25.0533 108.861 24.76C109.367 24.4667 109.774 24.04 110.081 23.48C110.401 22.9067 110.561 22.24 110.561 21.48ZM118.135 12.2V27H115.855V12.2H118.135ZM134.704 24.16H128.884L127.884 27H125.504L130.484 13.08H133.124L138.104 27H135.704L134.704 24.16ZM134.064 22.3L131.804 15.84L129.524 22.3H134.064ZM142.29 25.14H147.29V27H139.65V25.14L144.67 17.84H139.65V15.98H147.29V17.84L142.29 25.14ZM148.924 21.44C148.924 20.3333 149.15 19.3533 149.604 18.5C150.07 17.6467 150.697 16.9867 151.484 16.52C152.284 16.04 153.164 15.8 154.124 15.8C154.99 15.8 155.744 15.9733 156.384 16.32C157.037 16.6533 157.557 17.0733 157.944 17.58V15.98H160.244V27H157.944V25.36C157.557 25.88 157.03 26.3133 156.364 26.66C155.697 27.0067 154.937 27.18 154.084 27.18C153.137 27.18 152.27 26.94 151.484 26.46C150.697 25.9667 150.07 25.2867 149.604 24.42C149.15 23.54 148.924 22.5467 148.924 21.44ZM157.944 21.48C157.944 20.72 157.784 20.06 157.464 19.5C157.157 18.94 156.75 18.5133 156.244 18.22C155.737 17.9267 155.19 17.78 154.604 17.78C154.017 17.78 153.47 17.9267 152.964 18.22C152.457 18.5 152.044 18.92 151.724 19.48C151.417 20.0267 151.264 20.68 151.264 21.44C151.264 22.2 151.417 22.8667 151.724 23.44C152.044 24.0133 152.457 24.4533 152.964 24.76C153.484 25.0533 154.03 25.2 154.604 25.2C155.19 25.2 155.737 25.0533 156.244 24.76C156.75 24.4667 157.157 24.04 157.464 23.48C157.784 22.9067 157.944 22.24 157.944 21.48ZM176.578 15.8C177.445 15.8 178.218 15.98 178.898 16.34C179.592 16.7 180.132 17.2333 180.518 17.94C180.918 18.6467 181.118 19.5 181.118 20.5V27H178.858V20.84C178.858 19.8533 178.612 19.1 178.118 18.58C177.625 18.0467 176.952 17.78 176.098 17.78C175.245 17.78 174.565 18.0467 174.058 18.58C173.565 19.1 173.318 19.8533 173.318 20.84V27H171.058V20.84C171.058 19.8533 170.812 19.1 170.318 18.58C169.825 18.0467 169.152 17.78 168.298 17.78C167.445 17.78 166.765 18.0467 166.258 18.58C165.765 19.1 165.518 19.8533 165.518 20.84V27H163.238V15.98H165.518V17.24C165.892 16.7867 166.365 16.4333 166.938 16.18C167.512 15.9267 168.125 15.8 168.778 15.8C169.658 15.8 170.445 15.9867 171.138 16.36C171.832 16.7333 172.365 17.2733 172.738 17.98C173.072 17.3133 173.592 16.7867 174.298 16.4C175.005 16 175.765 15.8 176.578 15.8ZM185.18 14.52C184.766 14.52 184.42 14.38 184.14 14.1C183.86 13.82 183.72 13.4733 183.72 13.06C183.72 12.6467 183.86 12.3 184.14 12.02C184.42 11.74 184.766 11.6 185.18 11.6C185.58 11.6 185.92 11.74 186.2 12.02C186.48 12.3 186.62 12.6467 186.62 13.06C186.62 13.4733 186.48 13.82 186.2 14.1C185.92 14.38 185.58 14.52 185.18 14.52ZM186.3 15.98V27H184.02V15.98H186.3Z" fill="black"/>
</svg>
